<svg width="188" height="68" viewBox="0 0 188 68" fill="none" xmlns="http://www.w3.org/2000/svg">
<g filter="url(#filter0_b_13_3565)">
<rect width="188" height="68" fill="white" fill-opacity="0.6"/>
</g>
<path d="M111.08 22.66L108.32 27.976V31H106.952V27.976L104.18 22.66H105.704L107.636 26.752L109.568 22.66H111.08ZM118.226 27.532C118.226 27.78 118.21 28.004 118.178 28.204H113.126C113.166 28.732 113.362 29.156 113.714 29.476C114.066 29.796 114.498 29.956 115.01 29.956C115.746 29.956 116.266 29.648 116.57 29.032H118.046C117.846 29.64 117.482 30.14 116.954 30.532C116.434 30.916 115.786 31.108 115.01 31.108C114.378 31.108 113.81 30.968 113.306 30.688C112.81 30.4 112.418 30 112.13 29.488C111.85 28.968 111.71 28.368 111.71 27.688C111.71 27.008 111.846 26.412 112.118 25.9C112.398 25.38 112.786 24.98 113.282 24.7C113.786 24.42 114.362 24.28 115.01 24.28C115.634 24.28 116.19 24.416 116.678 24.688C117.166 24.96 117.546 25.344 117.818 25.84C118.09 26.328 118.226 26.892 118.226 27.532ZM116.798 27.1C116.79 26.596 116.61 26.192 116.258 25.888C115.906 25.584 115.47 25.432 114.95 25.432C114.478 25.432 114.074 25.584 113.738 25.888C113.402 26.184 113.202 26.588 113.138 27.1H116.798ZM119.116 27.664C119.116 27 119.252 26.412 119.524 25.9C119.804 25.388 120.18 24.992 120.652 24.712C121.132 24.424 121.66 24.28 122.236 24.28C122.756 24.28 123.208 24.384 123.592 24.592C123.984 24.792 124.296 25.044 124.528 25.348V24.388H125.908V31H124.528V30.016C124.296 30.328 123.98 30.588 123.58 30.796C123.18 31.004 122.724 31.108 122.212 31.108C121.644 31.108 121.124 30.964 120.652 30.676C120.18 30.38 119.804 29.972 119.524 29.452C119.252 28.924 119.116 28.328 119.116 27.664ZM124.528 27.688C124.528 27.232 124.432 26.836 124.24 26.5C124.056 26.164 123.812 25.908 123.508 25.732C123.204 25.556 122.876 25.468 122.524 25.468C122.172 25.468 121.844 25.556 121.54 25.732C121.236 25.9 120.988 26.152 120.796 26.488C120.612 26.816 120.52 27.208 120.52 27.664C120.52 28.12 120.612 28.52 120.796 28.864C120.988 29.208 121.236 29.472 121.54 29.656C121.852 29.832 122.18 29.92 122.524 29.92C122.876 29.92 123.204 29.832 123.508 29.656C123.812 29.48 124.056 29.224 124.24 28.888C124.432 28.544 124.528 28.144 124.528 27.688ZM129.073 25.348C129.273 25.012 129.537 24.752 129.865 24.568C130.201 24.376 130.597 24.28 131.053 24.28V25.696H130.705C130.169 25.696 129.761 25.832 129.481 26.104C129.209 26.376 129.073 26.848 129.073 27.52V31H127.705V24.388H129.073V25.348ZM134.71 31.108C134.19 31.108 133.722 31.016 133.306 30.832C132.898 30.64 132.574 30.384 132.334 30.064C132.094 29.736 131.966 29.372 131.95 28.972H133.366C133.39 29.252 133.522 29.488 133.762 29.68C134.01 29.864 134.318 29.956 134.686 29.956C135.07 29.956 135.366 29.884 135.574 29.74C135.79 29.588 135.898 29.396 135.898 29.164C135.898 28.916 135.778 28.732 135.538 28.612C135.306 28.492 134.934 28.36 134.422 28.216C133.926 28.08 133.522 27.948 133.21 27.82C132.898 27.692 132.626 27.496 132.394 27.232C132.17 26.968 132.058 26.62 132.058 26.188C132.058 25.836 132.162 25.516 132.37 25.228C132.578 24.932 132.874 24.7 133.258 24.532C133.65 24.364 134.098 24.28 134.602 24.28C135.354 24.28 135.958 24.472 136.414 24.856C136.878 25.232 137.126 25.748 137.158 26.404H135.79C135.766 26.108 135.646 25.872 135.43 25.696C135.214 25.52 134.922 25.432 134.554 25.432C134.194 25.432 133.918 25.5 133.726 25.636C133.534 25.772 133.438 25.952 133.438 26.176C133.438 26.352 133.502 26.5 133.63 26.62C133.758 26.74 133.914 26.836 134.098 26.908C134.282 26.972 134.554 27.056 134.914 27.16C135.394 27.288 135.786 27.42 136.09 27.556C136.402 27.684 136.67 27.876 136.894 28.132C137.118 28.388 137.234 28.728 137.242 29.152C137.242 29.528 137.138 29.864 136.93 30.16C136.722 30.456 136.426 30.688 136.042 30.856C135.666 31.024 135.222 31.108 134.71 31.108ZM106.268 37.764V40.212H109.148V41.328H106.268V43.884H109.508V45H104.9V36.648H109.508V37.764H106.268ZM114.025 41.652L116.161 45H114.613L113.185 42.756L111.841 45H110.413L112.549 41.748L110.413 38.388H111.961L113.389 40.632L114.733 38.388H116.161L114.025 41.652ZM118.549 39.36C118.781 39.056 119.097 38.8 119.497 38.592C119.897 38.384 120.349 38.28 120.853 38.28C121.429 38.28 121.953 38.424 122.425 38.712C122.905 38.992 123.281 39.388 123.553 39.9C123.825 40.412 123.961 41 123.961 41.664C123.961 42.328 123.825 42.924 123.553 43.452C123.281 43.972 122.905 44.38 122.425 44.676C121.953 44.964 121.429 45.108 120.853 45.108C120.349 45.108 119.901 45.008 119.509 44.808C119.117 44.6 118.797 44.344 118.549 44.04V48.144H117.181V38.388H118.549V39.36ZM122.569 41.664C122.569 41.208 122.473 40.816 122.281 40.488C122.097 40.152 121.849 39.9 121.537 39.732C121.233 39.556 120.905 39.468 120.553 39.468C120.209 39.468 119.881 39.556 119.569 39.732C119.265 39.908 119.017 40.164 118.825 40.5C118.641 40.836 118.549 41.232 118.549 41.688C118.549 42.144 118.641 42.544 118.825 42.888C119.017 43.224 119.265 43.48 119.569 43.656C119.881 43.832 120.209 43.92 120.553 43.92C120.905 43.92 121.233 43.832 121.537 43.656C121.849 43.472 122.097 43.208 122.281 42.864C122.473 42.52 122.569 42.12 122.569 41.664ZM131.374 41.532C131.374 41.78 131.358 42.004 131.326 42.204H126.274C126.314 42.732 126.51 43.156 126.862 43.476C127.214 43.796 127.646 43.956 128.158 43.956C128.894 43.956 129.414 43.648 129.718 43.032H131.194C130.994 43.64 130.63 44.14 130.102 44.532C129.582 44.916 128.934 45.108 128.158 45.108C127.526 45.108 126.958 44.968 126.454 44.688C125.958 44.4 125.566 44 125.278 43.488C124.998 42.968 124.858 42.368 124.858 41.688C124.858 41.008 124.994 40.412 125.266 39.9C125.546 39.38 125.934 38.98 126.43 38.7C126.934 38.42 127.51 38.28 128.158 38.28C128.782 38.28 129.338 38.416 129.826 38.688C130.314 38.96 130.694 39.344 130.966 39.84C131.238 40.328 131.374 40.892 131.374 41.532ZM129.946 41.1C129.938 40.596 129.758 40.192 129.406 39.888C129.054 39.584 128.618 39.432 128.098 39.432C127.626 39.432 127.222 39.584 126.886 39.888C126.55 40.184 126.35 40.588 126.286 41.1H129.946ZM134.088 39.348C134.288 39.012 134.552 38.752 134.88 38.568C135.216 38.376 135.612 38.28 136.068 38.28V39.696H135.72C135.184 39.696 134.776 39.832 134.496 40.104C134.224 40.376 134.088 40.848 134.088 41.52V45H132.72V38.388H134.088V39.348ZM138.022 37.512C137.774 37.512 137.566 37.428 137.398 37.26C137.23 37.092 137.146 36.884 137.146 36.636C137.146 36.388 137.23 36.18 137.398 36.012C137.566 35.844 137.774 35.76 138.022 35.76C138.262 35.76 138.466 35.844 138.634 36.012C138.802 36.18 138.886 36.388 138.886 36.636C138.886 36.884 138.802 37.092 138.634 37.26C138.466 37.428 138.262 37.512 138.022 37.512ZM138.694 38.388V45H137.326V38.388H138.694ZM146.55 41.532C146.55 41.78 146.534 42.004 146.502 42.204H141.45C141.49 42.732 141.686 43.156 142.038 43.476C142.39 43.796 142.822 43.956 143.334 43.956C144.07 43.956 144.59 43.648 144.894 43.032H146.37C146.17 43.64 145.806 44.14 145.278 44.532C144.758 44.916 144.11 45.108 143.334 45.108C142.702 45.108 142.134 44.968 141.63 44.688C141.134 44.4 140.742 44 140.454 43.488C140.174 42.968 140.034 42.368 140.034 41.688C140.034 41.008 140.17 40.412 140.442 39.9C140.722 39.38 141.11 38.98 141.606 38.7C142.11 38.42 142.686 38.28 143.334 38.28C143.958 38.28 144.514 38.416 145.002 38.688C145.49 38.96 145.87 39.344 146.142 39.84C146.414 40.328 146.55 40.892 146.55 41.532ZM145.122 41.1C145.114 40.596 144.934 40.192 144.582 39.888C144.23 39.584 143.794 39.432 143.274 39.432C142.802 39.432 142.398 39.584 142.062 39.888C141.726 40.184 141.526 40.588 141.462 41.1H145.122ZM151.232 38.28C151.752 38.28 152.216 38.388 152.624 38.604C153.04 38.82 153.364 39.14 153.596 39.564C153.828 39.988 153.944 40.5 153.944 41.1V45H152.588V41.304C152.588 40.712 152.44 40.26 152.144 39.948C151.848 39.628 151.444 39.468 150.932 39.468C150.42 39.468 150.012 39.628 149.708 39.948C149.412 40.26 149.264 40.712 149.264 41.304V45H147.896V38.388H149.264V39.144C149.488 38.872 149.772 38.66 150.116 38.508C150.468 38.356 150.84 38.28 151.232 38.28ZM155.233 41.688C155.233 41.008 155.369 40.412 155.641 39.9C155.921 39.38 156.305 38.98 156.793 38.7C157.281 38.42 157.841 38.28 158.473 38.28C159.273 38.28 159.933 38.472 160.453 38.856C160.981 39.232 161.337 39.772 161.521 40.476H160.045C159.925 40.148 159.733 39.892 159.469 39.708C159.205 39.524 158.873 39.432 158.473 39.432C157.913 39.432 157.465 39.632 157.129 40.032C156.801 40.424 156.637 40.976 156.637 41.688C156.637 42.4 156.801 42.956 157.129 43.356C157.465 43.756 157.913 43.956 158.473 43.956C159.265 43.956 159.789 43.608 160.045 42.912H161.521C161.329 43.584 160.969 44.12 160.441 44.52C159.913 44.912 159.257 45.108 158.473 45.108C157.841 45.108 157.281 44.968 156.793 44.688C156.305 44.4 155.921 44 155.641 43.488C155.369 42.968 155.233 42.368 155.233 41.688ZM168.944 41.532C168.944 41.78 168.928 42.004 168.896 42.204H163.844C163.884 42.732 164.08 43.156 164.432 43.476C164.784 43.796 165.216 43.956 165.728 43.956C166.464 43.956 166.984 43.648 167.288 43.032H168.764C168.564 43.64 168.2 44.14 167.672 44.532C167.152 44.916 166.504 45.108 165.728 45.108C165.096 45.108 164.528 44.968 164.024 44.688C163.528 44.4 163.136 44 162.848 43.488C162.568 42.968 162.428 42.368 162.428 41.688C162.428 41.008 162.564 40.412 162.836 39.9C163.116 39.38 163.504 38.98 164 38.7C164.504 38.42 165.08 38.28 165.728 38.28C166.352 38.28 166.908 38.416 167.396 38.688C167.884 38.96 168.264 39.344 168.536 39.84C168.808 40.328 168.944 40.892 168.944 41.532ZM167.516 41.1C167.508 40.596 167.328 40.192 166.976 39.888C166.624 39.584 166.188 39.432 165.668 39.432C165.196 39.432 164.792 39.584 164.456 39.888C164.12 40.184 163.92 40.588 163.856 41.1H167.516Z" fill="#313131"/>
<path d="M25.92 41.8C28.48 39.5867 30.4933 37.7733 31.96 36.36C33.4533 34.92 34.6933 33.4267 35.68 31.88C36.6667 30.3333 37.16 28.7867 37.16 27.24C37.16 25.64 36.7733 24.3867 36 23.48C35.2533 22.5733 34.0667 22.12 32.44 22.12C30.8667 22.12 29.64 22.6267 28.76 23.64C27.9067 24.6267 27.4533 25.96 27.4 27.64H23C23.08 24.6 23.9867 22.28 25.72 20.68C27.48 19.0533 29.7067 18.24 32.4 18.24C35.3067 18.24 37.5733 19.04 39.2 20.64C40.8533 22.24 41.68 24.3733 41.68 27.04C41.68 28.96 41.1867 30.8133 40.2 32.6C39.24 34.36 38.08 35.9467 36.72 37.36C35.3867 38.7467 33.68 40.36 31.6 42.2L29.8 43.8H42.48V47.6H23.04V44.28L25.92 41.8ZM46.4859 33.04C46.4859 28.4267 47.2593 24.8267 48.8059 22.24C50.3793 19.6267 53.0726 18.32 56.8859 18.32C60.6993 18.32 63.3793 19.6267 64.9259 22.24C66.4993 24.8267 67.2859 28.4267 67.2859 33.04C67.2859 37.7067 66.4993 41.36 64.9259 44C63.3793 46.6133 60.6993 47.92 56.8859 47.92C53.0726 47.92 50.3793 46.6133 48.8059 44C47.2593 41.36 46.4859 37.7067 46.4859 33.04ZM62.8059 33.04C62.8059 30.88 62.6593 29.0533 62.3659 27.56C62.0993 26.0667 61.5393 24.8533 60.6859 23.92C59.8326 22.96 58.5659 22.48 56.8859 22.48C55.2059 22.48 53.9393 22.96 53.0859 23.92C52.2326 24.8533 51.6593 26.0667 51.3659 27.56C51.0993 29.0533 50.9659 30.88 50.9659 33.04C50.9659 35.28 51.0993 37.16 51.3659 38.68C51.6326 40.2 52.1926 41.4267 53.0459 42.36C53.9259 43.2933 55.2059 43.76 56.8859 43.76C58.5659 43.76 59.8326 43.2933 60.6859 42.36C61.5659 41.4267 62.1393 40.2 62.4059 38.68C62.6726 37.16 62.8059 35.28 62.8059 33.04ZM94.1909 35.48H86.1109V43.76H81.8709V35.48H73.7909V31.64H81.8709V23.36H86.1109V31.64H94.1909V35.48Z" fill="#0AC05E"/>
<defs>
<filter id="filter0_b_13_3565" x="-10" y="-10" width="208" height="88" filterUnits="userSpaceOnUse" color-interpolation-filters="sRGB">
<feFlood flood-opacity="0" result="BackgroundImageFix"/>
<feGaussianBlur in="BackgroundImage" stdDeviation="5"/>
<feComposite in2="SourceAlpha" operator="in" result="effect1_backgroundBlur_13_3565"/>
<feBlend mode="normal" in="SourceGraphic" in2="effect1_backgroundBlur_13_3565" result="shape"/>
</filter>
</defs>
</svg>
